<svg width="60" height="29" viewBox="0 0 60 29" fill="none" xmlns="http://www.w3.org/2000/svg">
<path d="M18.532 8.8895H22.3399V10.1337H20.5285V18.8759H18.532V8.8895ZM24.5975 15.1269L24.9397 10.1337H25.0543L25.3965 15.1269H24.5975ZM22.3866 18.8759H24.3414L24.5263 16.2237H25.4677L25.6534 18.8759H27.6073L26.5661 8.8895H23.4278L22.3866 18.8759ZM30.4666 15.3807V17.2633C30.4666 17.5171 30.663 17.5908 30.7776 17.5908C30.9659 17.5908 31.0969 17.4352 31.0969 17.2633V14.9388C31.0969 14.6277 31.0395 14.2839 30.2947 14.2839H29.4843V13.1871H30.3274C30.8922 13.1871 31.0969 13.0561 31.0969 12.4421V10.4612C31.0969 10.2892 30.9659 10.1337 30.7775 10.1337C30.663 10.1337 30.4666 10.1992 30.4666 10.4612V12.0901H28.4692V10.674C28.4692 9.97821 28.5511 8.8895 29.9507 8.8895H31.6043C33.004 8.8895 33.0941 9.97821 33.0941 10.674V12.2701C33.0941 13.3588 32.3328 13.6535 31.7353 13.6289V13.7272C33.0777 13.6945 33.0941 14.7257 33.0941 15.0778V17.0915C33.0941 17.7954 33.004 18.8759 31.6043 18.8759H29.9507C28.5511 18.8759 28.4692 17.7953 28.4692 17.0914V15.3807H30.4666ZM34.4038 8.8895H39.0287V18.8759H37.0314V10.1337H36.4011V18.8759H34.4038V8.8895ZM42.3356 14.3821V10.1338H42.5976C42.8104 10.1338 42.9659 10.3138 42.9659 10.6331V13.8827C42.9659 14.202 42.8104 14.382 42.5975 14.382L42.3356 14.3821ZM40.3383 18.8759H42.3356V15.4789H43.4815C44.8731 15.4789 44.9632 14.3984 44.9632 13.6944V10.674C44.9632 9.97821 44.8731 8.8895 43.4816 8.8895H40.3383V18.8759ZM48.9004 17.2633C48.9004 17.4352 48.7694 17.5908 48.5812 17.5908C48.4665 17.5908 48.2701 17.5171 48.2701 17.2633V10.4612C48.2701 10.1992 48.4666 10.1337 48.5812 10.1337C48.7694 10.1337 48.9004 10.2892 48.9004 10.4612V17.2633ZM46.2728 17.0915C46.2728 17.7954 46.3628 18.8759 47.7544 18.8759H49.4161C50.8076 18.8759 50.8977 17.7953 50.8977 17.0914V10.674C50.8977 9.97821 50.8077 8.8895 49.4161 8.8895H47.7544C46.3629 8.8895 46.2728 9.97821 46.2728 10.674V17.0915ZM57.397 8.8895H60V18.8759H58.0028V12.614H57.929L56.8976 18.8759H55.3015L54.2783 12.614H54.2046V18.8759H52.2074V8.8895H54.8022L56.1037 15.9127L57.397 8.8895ZM15.9437 5.20606C15.3323 2.52937 13.7999 0.352052 13.5887 0C13.2548 0.499276 12.0327 2.42299 11.4114 4.55118C10.7328 6.93315 10.633 9.04502 10.8672 11.116C11.0996 13.1951 11.9778 15.3316 11.9778 15.3316C12.4445 16.4448 13.1435 17.648 13.5986 18.2374C14.2657 17.3698 15.7989 14.7831 16.2769 11.4107C16.5429 9.52798 16.5544 7.88275 15.9437 5.20606ZM13.5887 17.5662C13.2884 17.0014 12.8218 15.929 12.7776 14.2592C12.7661 12.6549 13.4103 11.2715 13.5986 10.9851C13.7664 11.2716 14.3213 12.4748 14.3877 14.1201C14.4327 15.7245 13.899 16.9931 13.5887 17.5662ZM15.7662 9.74895C15.7432 10.7722 15.6212 11.8527 15.4657 12.4994C15.5214 11.3861 15.388 9.82269 15.1325 8.59488C14.8772 7.37518 14.1544 5.32885 13.5774 4.38746C13.0445 5.28792 12.3879 7.05594 12.0442 8.58667C11.6987 10.1173 11.6889 11.9755 11.6889 12.5321C11.5972 12.0655 11.368 10.3875 11.4327 8.70946C11.4868 7.32613 11.8108 5.89367 11.9885 5.23879C12.6662 3.05326 13.4332 1.65352 13.5773 1.43246C13.7214 1.65352 14.6872 3.3807 15.1882 5.18965C15.6868 6.99869 15.7874 8.7339 15.7662 9.74895Z" fill="#6088E4"/>
<path d="M14.6259 18.8595H9.97733V21.9782C9.98148 21.9782 9.98474 21.97 9.9888 21.97C11.084 20.8732 12.8603 20.8732 13.9564 21.97C15.0516 23.0587 15.0516 24.8349 13.9564 25.9318C13.9514 25.94 13.9465 25.94 13.9416 25.9482C13.9359 25.9482 13.9302 25.9564 13.9252 25.9646C12.8325 27.0451 11.4049 27.5853 9.97733 27.5853C8.54328 27.5853 7.10914 27.0451 6.01558 25.9482C4.08701 24.0245 3.85863 21.0368 5.32876 18.8595C5.53059 18.56 5.76057 18.2804 6.01558 18.0246C7.10914 16.9278 8.54328 16.3875 9.97733 16.3875V8.8895C4.46685 8.8895 0 13.3506 0 18.8595C0 24.3684 4.46685 28.8377 9.97733 28.8377C12.8505 28.8377 15.4388 27.618 17.2592 25.6781V18.8595H14.6259ZM60 21.7935H18.5321V28.8377H60V21.7935ZM56.4142 26.7111H56.9404V25.6478H56.4142V26.7111ZM56.4142 24.8504H57.2103L57.7434 25.1162L57.8748 25.382L58.0064 25.9137V26.1795C57.9926 28.0839 56.7673 27.3867 55.4797 27.5086V23.1226H56.4142V24.8504ZM49.4988 23.1226V23.92H48.8342V27.5086H47.775V23.92H47.1105V23.1226H49.4988ZM39.8005 26.3124H39.932L40.195 26.1795V24.3187H39.8005V26.3124ZM38.7344 24.3188H38.3329V26.1795L38.6028 26.3124H38.7344V24.3188ZM39.8005 23.1226V23.5213H40.4651L40.8596 23.7871L41.1295 24.0529L41.2611 24.5846V26.0466L41.1296 26.5783L40.8596 26.844L40.4651 27.1098H39.8005V27.5085H38.7344V27.1098H38.0698L37.6684 26.844L37.4053 26.5783L37.2738 26.0466V24.5846L37.4053 24.0529L37.6684 23.7871L38.0698 23.5213H38.7344V23.1226H39.8005ZM31.1586 23.1226V23.92H30.3611V24.8504H31.1586V25.6478H30.3611V26.7111H31.2915V27.5085H29.2978V23.1226H31.1586ZM21.589 24.8504H22.1207V23.1226H23.0511V27.5086H22.1207V25.6478H21.589V27.5086H20.5257V23.1226H21.589V24.8504Z" fill="#6088E4"/>
</svg>
