<svg width="20" height="21" viewBox="0 0 20 21" fill="none" xmlns="http://www.w3.org/2000/svg">
<path fill-rule="evenodd" clip-rule="evenodd" d="M4.30752 2.63425C7.51567 1.20649 11.4324 1.29946 13.5342 2.23581C14.1949 2.54327 14.6392 2.72921 14.8404 3.09578C12.6589 2.5114 11.7226 2.40581 9.89638 2.4503C7.29985 2.49679 3.84532 3.52478 2.52514 4.31038L1.94407 5.03356C3.84532 3.90861 7.39282 3.17415 9.35981 3.11172C11.5552 3.08184 13.2579 3.28173 14.8252 3.84951C14.7322 4.24796 14.533 4.44851 14.1956 4.64906C7.93072 3.55732 4.22982 4.84695 0.882212 7.02844L0.637832 7.74963C4.36928 5.1863 8.94343 4.48038 13.3516 5.24739C11.7697 5.80057 9.88111 5.92342 8.29994 6.28933C6.94921 6.59746 6.22736 6.69043 4.42838 7.29075C2.60416 7.88975 1.52637 8.50402 0.852329 9.28763C0.529588 9.65752 0.283879 10.0865 0.221456 10.5461C0.192901 10.8216 0.208175 11.0693 0.301145 11.3164C0.374194 11.5309 0.544197 11.7454 0.729475 11.9605C0.515642 12.3284 0.328372 12.8066 0.637832 13.3597C0.775296 13.6187 1.12858 13.8797 1.46793 14.1281L1.37296 14.4023C1.32648 14.7271 1.28199 15.1096 1.49715 15.4317C1.86438 16.0154 2.30998 16.4006 3.01589 16.7691C3.1248 17.2459 3.29214 17.6284 3.66071 17.9684C4.44365 18.689 6.19549 20.0716 9.31133 20.2874C11.6469 20.4421 13.3197 19.7342 13.9499 19.4267L14.7169 19.0283C13.4127 19.5489 11.2172 19.8571 9.41891 19.703C6.80909 19.4878 4.47686 17.7838 4.18466 17.2911C4.27564 17.3508 4.39916 17.398 4.50475 17.4451C7.56149 18.9194 11.5074 19.7189 16.5597 17.6603L16.9761 17.2605C12.3827 18.6883 8.3617 18.6438 4.04521 16.3853C4.09236 16.1708 4.18466 15.9835 4.38256 15.8334C5.48758 16.3215 6.54811 16.7233 7.83841 16.9836C9.34321 17.2605 11.0625 17.323 12.4763 17.2605C13.9041 17.1994 16.7284 16.4929 18.0652 15.7863C18.1874 15.6794 18.2485 15.4961 18.3707 15.3719C15.7622 16.3215 12.6596 16.7691 10.7869 16.6297C8.95937 16.4929 7.33371 16.2764 5.18211 15.2942C5.59583 15.1262 6.02615 14.9874 6.45647 14.8626C7.86896 15.2942 9.31133 15.5532 11.016 15.6316C12.7068 15.7086 16.652 15.0804 19.139 13.5749C19.2167 13.3597 19.2931 13.1273 19.2931 13.1273C19.2931 13.1273 15.8379 14.9735 11.9238 14.9735C10.0956 14.9735 8.97531 14.7105 8.14654 14.5113C9.98803 14.1726 12.3076 13.8957 14.9161 13.2362C16.2363 12.8975 17.8646 12.1285 18.6018 11.4844C19.2313 10.9146 19.7234 10.1768 19.5554 9.42709C19.5222 9.22521 19.2466 8.75172 18.9086 8.58105C19.2313 8.16667 19.2008 7.81272 19.1556 7.50724C19.1237 7.27349 19.0161 7.0145 18.88 6.78473C18.659 6.48142 18.3752 6.22932 18.0479 6.04561C18.1118 5.72312 18.0689 5.38861 17.9257 5.09266C17.6037 4.53949 17.0213 4.06467 16.0225 3.55732C15.9767 3.35677 15.8525 3.09578 15.6393 2.83547C14.3809 1.59099 12.3223 0.991991 10.5864 0.960779C10.4901 0.958618 10.3938 0.957511 10.2975 0.957458C8.2674 0.957458 6.63776 1.41368 5.62903 1.88451C5.10441 2.11162 4.7053 2.35866 4.30752 2.63425ZM15.8983 4.31038C16.33 4.5873 16.8214 5.00235 16.8811 5.43267C16.4216 5.26134 15.9302 5.08071 15.4547 4.95653C15.6088 4.78719 15.8372 4.5262 15.8983 4.31038ZM13.5953 6.23089C14.1192 6.02967 14.4705 5.8165 14.7793 5.56947C15.468 5.75275 16.1135 5.98452 16.6381 6.21362C16.5478 6.34843 16.0218 6.83453 15.8611 6.83453C15.8529 6.83507 15.8446 6.83347 15.8372 6.82988C15.1021 6.62867 14.4573 6.38296 13.5953 6.23089ZM17.7272 6.8445C18.1409 7.19778 18.2631 7.44349 18.0645 7.82799C17.7896 7.62877 17.4954 7.52052 17.1747 7.36712C17.3726 7.21306 17.5578 7.04571 17.7272 6.8445ZM4.96761 8.25898C6.88679 7.68787 9.12871 7.26087 11.1568 7.0145C12.5514 6.84449 13.2905 6.99989 14.6113 7.35251C11.2179 8.25831 7.86896 8.54851 4.67475 9.48685C2.10013 10.2353 1.41679 11.1776 1.40617 11.1776C0.267942 9.61037 4.21388 8.49074 4.96761 8.25898ZM6.78054 10.1469C9.61946 9.53268 12.2612 9.1495 13.3509 8.87325C14.6724 8.54851 15.5935 8.24304 16.2363 7.9369C16.2675 7.89041 17.3115 8.39644 17.4184 8.5173C17.0664 8.81082 16.5763 9.05786 16.0371 9.23982C14.4254 9.8242 11.4935 10.4378 9.94287 10.6722C8.37631 10.9319 7.06875 11.1304 5.33617 11.5893C4.33674 11.853 3.66071 12.1598 3.16929 12.4832C2.80073 12.2673 2.58623 12.2069 2.24888 11.9293C3.44621 10.9146 5.88868 10.3468 6.77987 10.1469H6.78054ZM6.07064 12.6372C8.77343 11.9738 11.1555 11.8523 14.4413 10.9624C16.0218 10.5461 17.174 10.0991 17.8965 9.54928C18.0028 9.45498 18.1097 9.37927 18.2186 9.28763C19.1702 10.7619 15.5928 11.8988 13.1497 12.4234C11.7983 12.697 9.92494 13.0344 9.31067 13.1439C7.71689 13.4049 7.1916 13.5437 6.08658 13.8658C5.53407 13.6499 4.98089 13.4195 4.47619 13.1579C4.98089 12.9434 5.53407 12.774 6.06998 12.6379L6.07064 12.6372ZM2.32525 13.1273C2.21767 13.2203 2.07888 13.3133 1.97196 13.4195C1.72758 13.2801 1.48054 12.9759 1.60273 12.697C1.84844 12.8524 2.03239 12.9759 2.32525 13.1273ZM3.44555 13.6984C3.90642 13.9136 4.38189 14.1102 4.82682 14.3114C4.52759 14.4208 4.24014 14.56 3.96884 14.7271C3.60232 14.5271 3.23881 14.3217 2.87842 14.1108C3.03183 13.9727 3.23039 13.8352 3.44555 13.6978V13.6984ZM3.26293 15.3095C3.15468 15.4635 3.07698 15.5851 3.03249 15.7405C2.64733 15.4171 2.46205 15.1561 2.47865 14.8632C2.73963 15.0326 3.00062 15.17 3.26226 15.3095H3.26293Z" fill="white"/>
</svg>
