<svg width="170" height="83" viewBox="0 0 170 83" fill="none" xmlns="http://www.w3.org/2000/svg">
<path d="M53.4629 40.5C46.83 40.5001 40.7428 44.1634 37.6338 50.0176L32.1689 64.5H49.8809C55.5799 64.5 60.7275 61.0933 62.9551 55.8477L62.959 55.8389L62.9629 55.8311L69.7021 40.5H53.4629Z" stroke="#BDCEFA" stroke-width="3"/>
<path d="M92.4629 16.5C85.83 16.5001 79.7428 20.1634 76.6338 26.0176L71.1689 40.5H88.8809C94.5799 40.5 99.7275 37.0933 101.955 31.8477L101.959 31.8389L101.963 31.8311L108.702 16.5H92.4629Z" stroke="#BDCEFA" stroke-width="3"/>
<path d="M123.922 1.5C120.516 1.50005 117.393 3.38428 115.803 6.39062L113.158 13.5H121.817C124.702 13.5 127.305 11.7677 128.419 9.10645L128.427 9.08887L131.716 1.5H123.922Z" stroke="#BDCEFA" stroke-width="3"/>
<path d="M12.9219 69.5C9.51623 69.5001 6.3934 71.3843 4.80273 74.3906L2.1582 81.5H10.8174C13.7024 81.5 16.305 79.7677 17.4189 77.1064L17.4268 77.0889L20.7158 69.5H12.9219Z" stroke="#BDCEFA" stroke-width="3"/>
<path d="M124.922 62.5C121.516 62.5001 118.393 64.3843 116.803 67.3906L114.158 74.5H122.817C125.702 74.5 128.305 72.7677 129.419 70.1064L129.427 70.0889L132.716 62.5H124.922Z" stroke="#BDCEFA" stroke-width="3"/>
<path d="M52.9219 15.5C49.5162 15.5001 46.3934 17.3843 44.8027 20.3906L42.1582 27.5H50.8174C53.7024 27.5 56.305 25.7677 57.4189 23.1064L57.4268 23.0889L60.7158 15.5H52.9219Z" stroke="#BDCEFA" stroke-width="3"/>
<path d="M159.922 8.5C156.516 8.50005 153.393 10.3843 151.803 13.3906L149.158 20.5H157.817C160.702 20.5 163.305 18.7677 164.419 16.1064L164.427 16.0889L167.716 8.5H159.922Z" stroke="#BDCEFA" stroke-width="3"/>
<path d="M80.2842 48.5C71.2453 48.5 62.9506 53.4973 58.7227 61.4814L51.1689 81.5H75.5088C83.308 81.4998 90.352 76.8379 93.4004 69.6592L93.4082 69.6416L102.702 48.5H80.2842Z" stroke="#BDCEFA" stroke-width="3"/>
<path d="M124.463 24.5C117.83 24.5001 111.743 28.1634 108.634 34.0176L103.169 48.5H120.881C126.58 48.5 131.728 45.0933 133.955 39.8477L133.959 39.8389L133.963 39.8311L140.702 24.5H124.463Z" stroke="#BDCEFA" stroke-width="3"/>
</svg>
