<svg width="47" height="14" viewBox="0 0 47 14" fill="none" xmlns="http://www.w3.org/2000/svg">
<path d="M33.8215 6.00419V13.282H37.8648V8.96924H42.4471C44.3744 8.95576 46.0119 7.72257 46.6318 6.00419H33.8215Z" fill="white"/>
<path d="M33.2825 0.0067358C33.5183 2.97852 36.3351 5.33033 39.7719 5.33033C39.7853 5.33033 46.8003 5.33033 46.8003 5.33033C46.8542 5.06078 46.8812 4.77776 46.8812 4.48799C46.8812 2.02162 44.8933 0.026952 42.4336 0.0067358H33.2825Z" fill="white"/>
<path d="M27.2983 5.25621C27.3455 5.17534 27.4196 5.12817 27.5139 5.12817C27.6487 5.12817 27.7498 5.23599 27.7565 5.36403V13.2146H31.7998V0.0067358H27.7565C27.2444 0.026952 26.6649 0.397582 26.4492 0.862554L23.2349 7.76302C23.2281 7.78997 23.2146 7.81692 23.2012 7.84388C23.154 7.91127 23.0731 7.95844 22.9788 7.95844C22.8305 7.95844 22.7092 7.83714 22.7092 7.68889V0.0067358H18.666V13.2146H22.7092C23.2146 13.1877 23.7807 12.8171 23.9963 12.3588L27.2983 5.27642C27.2916 5.26968 27.2983 5.26295 27.2983 5.25621Z" fill="white"/>
<path d="M12.2038 5.48533L9.83852 13.2147H6.9274L4.56885 5.47859C4.54863 5.35729 4.44081 5.26295 4.30604 5.26295C4.15779 5.26295 4.04323 5.38425 4.04323 5.52576V13.2079H0V0H3.47044H4.50146C5.24272 0 6.02441 0.579531 6.24005 1.2871L8.20775 7.72259C8.30883 8.04604 8.46383 8.03931 8.56491 7.72259L10.5326 1.2871C10.7482 0.572792 11.5299 0 12.2712 0H13.3022H16.7727V13.2079H12.7294V5.52576C12.7294 5.52576 12.7294 5.52576 12.7294 5.51902C12.7294 5.37077 12.6081 5.25621 12.4666 5.25621C12.3318 5.26295 12.224 5.35729 12.2038 5.48533Z" fill="white"/>
</svg>
