<svg width="64" height="62" viewBox="0 0 64 62" fill="none" xmlns="http://www.w3.org/2000/svg">
<path d="M28.7352 2.61194C30.3293 0.360099 33.6707 0.360095 35.2648 2.61194L44.1252 15.1286C44.6328 15.8455 45.3622 16.3755 46.2009 16.6366L60.8429 21.1956C63.4772 22.0158 64.5097 25.1936 62.8607 27.4055L53.6947 39.7002C53.1697 40.4044 52.8911 41.2619 52.9019 42.1403L53.0907 57.4745C53.1247 60.2332 50.4214 62.1973 47.8082 61.3125L33.2828 56.3943C32.4508 56.1126 31.5492 56.1126 30.7172 56.3943L16.1918 61.3125C13.5786 62.1973 10.8753 60.2332 10.9093 57.4745L11.0981 42.1403C11.1089 41.2619 10.8303 40.4044 10.3053 39.7002L1.13931 27.4055C-0.509723 25.1936 0.522825 22.0158 3.15705 21.1956L17.7991 16.6366C18.6378 16.3755 19.3672 15.8455 19.8748 15.1286L28.7352 2.61194Z" fill="url(#paint0_linear_162_4251)"/>
<defs>
<linearGradient id="paint0_linear_162_4251" x1="49.3571" y1="60.3571" x2="36.787" y2="4.44819" gradientUnits="userSpaceOnUse">
<stop stop-color="#1919EF"/>
<stop offset="1" stop-color="#DD41DB"/>
</linearGradient>
</defs>
</svg>
